<svg id="Layer_1" data-name="Layer 1" xmlns="http://www.w3.org/2000/svg" viewBox="0 0 16 16"><defs><style>.cls-1{fill:#1b9dd9;}.cls-2{fill:#302d7e;}</style></defs><path class="cls-1" d="M7.68,12.61v1.45c0,.08,0,.11.09.1h.47c.08,0,.1,0,.1-.09,0-.23,0-.46,0-.69a.23.23,0,0,1,.19-.26,5.05,5.05,0,0,0,1.4-.58.26.26,0,0,1,.34,0l.47.48c.06.06.09.07.15,0,.47-.47.93-.94,1.41-1.41.06-.06,0-.09,0-.15L11.81,11a.25.25,0,0,1-.05-.32,5.27,5.27,0,0,0,.59-1.41.23.23,0,0,1,.26-.2h.7c.07,0,.09,0,.09-.09V7c0-.08,0-.09-.09-.09h-.7a.23.23,0,0,1-.25-.19,5.38,5.38,0,0,0-.58-1.4c-.09-.15-.07-.22.05-.34l.47-.47c.06,0,.07-.08,0-.15q-.71-.69-1.41-1.41c-.07-.07-.1,0-.16,0l-.46.47a.24.24,0,0,1-.33.05,5.18,5.18,0,0,0-1.4-.58.23.23,0,0,1-.2-.27c0-.22,0-.45,0-.67s0-.12-.12-.11-.29,0-.43,0-.11,0-.11.11V4.84c0,.09,0,.12.1.13a3.08,3.08,0,0,1,0,6.06c-.09,0-.12,0-.12.13C7.68,11.64,7.68,12.13,7.68,12.61Z"/><path class="cls-1" d="M8.35,9.35H7a.67.67,0,0,1-.67-.68v-2a.06.06,0,0,1,0-.06h2A.67.67,0,0,1,9,7.33V8.67A.67.67,0,0,1,8.35,9.35Z"/><path class="cls-1" d="M5.5,6.13H4.29a.51.51,0,0,1-.51-.51v-1a.51.51,0,0,1,.51-.51h1a.51.51,0,0,1,.51.51V5.82A.32.32,0,0,1,5.5,6.13Z"/><rect class="cls-1" x="5.91" y="5.57" width="0.3" height="1.62" transform="translate(-2.74 6.16) rotate(-45)"/><rect class="cls-2" x="2.6" y="6.96" width="1.04" height="1.04" rx="0.26"/><rect class="cls-2" x="4" y="8.68" width="1.4" height="1.4" rx="0.35"/></svg>